<mxfile host="app.diagrams.net" modified="2021-06-04T04:03:41.363Z" agent="5.0 (Windows NT 10.0; Win64; x64) AppleWebKit/537.36 (KHTML, like Gecko) Chrome/90.0.4430.212 Safari/537.36" etag="70CxnBnILVN00v4LclLb" version="14.7.4" type="github">
  <diagram id="F5-WQgn5BVGKgtazZR-A" name="Page-1">
    <mxGraphModel dx="2062" dy="1160" grid="0" gridSize="10" guides="1" tooltips="1" connect="1" arrows="1" fold="1" page="1" pageScale="1" pageWidth="3300" pageHeight="4681" math="0" shadow="0">
      <root>
        <mxCell id="0" />
        <mxCell id="1" parent="0" />
        <mxCell id="I8pQOPDDGLEfTryZQ-16-34" style="edgeStyle=orthogonalEdgeStyle;rounded=0;orthogonalLoop=1;jettySize=auto;html=1;exitX=0.5;exitY=1;exitDx=0;exitDy=0;entryX=0;entryY=0.5;entryDx=0;entryDy=0;strokeWidth=2;" edge="1" parent="1" source="I8pQOPDDGLEfTryZQ-16-1" target="I8pQOPDDGLEfTryZQ-16-3">
          <mxGeometry relative="1" as="geometry" />
        </mxCell>
        <mxCell id="I8pQOPDDGLEfTryZQ-16-39" value="&lt;font style=&quot;font-size: 18px&quot;&gt;instruction&lt;/font&gt;" style="edgeLabel;html=1;align=center;verticalAlign=middle;resizable=0;points=[];" vertex="1" connectable="0" parent="I8pQOPDDGLEfTryZQ-16-34">
          <mxGeometry x="-0.1852" relative="1" as="geometry">
            <mxPoint y="-15" as="offset" />
          </mxGeometry>
        </mxCell>
        <mxCell id="I8pQOPDDGLEfTryZQ-16-1" value="&lt;font style=&quot;font-size: 24px&quot;&gt;IF&lt;/font&gt;" style="rounded=0;whiteSpace=wrap;html=1;strokeWidth=2;" vertex="1" parent="1">
          <mxGeometry x="390" y="390" width="90" height="210" as="geometry" />
        </mxCell>
        <mxCell id="I8pQOPDDGLEfTryZQ-16-36" style="edgeStyle=orthogonalEdgeStyle;rounded=0;orthogonalLoop=1;jettySize=auto;html=1;exitX=0.5;exitY=1;exitDx=0;exitDy=0;entryX=1;entryY=0.5;entryDx=0;entryDy=0;strokeWidth=2;" edge="1" parent="1" source="I8pQOPDDGLEfTryZQ-16-2" target="I8pQOPDDGLEfTryZQ-16-3">
          <mxGeometry relative="1" as="geometry" />
        </mxCell>
        <mxCell id="I8pQOPDDGLEfTryZQ-16-41" value="&lt;font style=&quot;font-size: 18px&quot;&gt;taken or not taken(actual)&lt;/font&gt;" style="edgeLabel;html=1;align=center;verticalAlign=middle;resizable=0;points=[];" vertex="1" connectable="0" parent="I8pQOPDDGLEfTryZQ-16-36">
          <mxGeometry x="-0.4439" y="-4" relative="1" as="geometry">
            <mxPoint x="9" y="-7" as="offset" />
          </mxGeometry>
        </mxCell>
        <mxCell id="I8pQOPDDGLEfTryZQ-16-2" value="&lt;font style=&quot;font-size: 24px&quot;&gt;EXE&lt;/font&gt;" style="rounded=0;whiteSpace=wrap;html=1;strokeWidth=2;" vertex="1" parent="1">
          <mxGeometry x="790" y="380" width="90" height="210" as="geometry" />
        </mxCell>
        <mxCell id="I8pQOPDDGLEfTryZQ-16-35" style="edgeStyle=orthogonalEdgeStyle;rounded=0;orthogonalLoop=1;jettySize=auto;html=1;exitX=0.5;exitY=0;exitDx=0;exitDy=0;entryX=1;entryY=0.5;entryDx=0;entryDy=0;strokeWidth=2;" edge="1" parent="1" source="I8pQOPDDGLEfTryZQ-16-3" target="I8pQOPDDGLEfTryZQ-16-1">
          <mxGeometry relative="1" as="geometry" />
        </mxCell>
        <mxCell id="I8pQOPDDGLEfTryZQ-16-40" value="&lt;font style=&quot;font-size: 18px&quot;&gt;taken or not taken(prediction)&lt;/font&gt;" style="edgeLabel;html=1;align=center;verticalAlign=middle;resizable=0;points=[];" vertex="1" connectable="0" parent="I8pQOPDDGLEfTryZQ-16-35">
          <mxGeometry x="-0.2327" y="-2" relative="1" as="geometry">
            <mxPoint x="-22" y="13" as="offset" />
          </mxGeometry>
        </mxCell>
        <mxCell id="I8pQOPDDGLEfTryZQ-16-3" value="&lt;font style=&quot;font-size: 24px&quot;&gt;BPU&lt;/font&gt;" style="rounded=0;whiteSpace=wrap;html=1;strokeWidth=2;" vertex="1" parent="1">
          <mxGeometry x="540" y="640" width="180" height="80" as="geometry" />
        </mxCell>
        <mxCell id="I8pQOPDDGLEfTryZQ-16-86" style="edgeStyle=orthogonalEdgeStyle;rounded=0;orthogonalLoop=1;jettySize=auto;html=1;entryX=0;entryY=1;entryDx=0;entryDy=0;strokeWidth=2;" edge="1" parent="1" source="I8pQOPDDGLEfTryZQ-16-17" target="I8pQOPDDGLEfTryZQ-16-32">
          <mxGeometry relative="1" as="geometry" />
        </mxCell>
        <mxCell id="I8pQOPDDGLEfTryZQ-16-17" value="" style="shape=table;html=1;whiteSpace=wrap;startSize=0;container=1;collapsible=0;childLayout=tableLayout;strokeWidth=2;" vertex="1" parent="1">
          <mxGeometry x="560" y="810" width="130" height="240" as="geometry" />
        </mxCell>
        <mxCell id="I8pQOPDDGLEfTryZQ-16-18" value="" style="shape=partialRectangle;html=1;whiteSpace=wrap;collapsible=0;dropTarget=0;pointerEvents=0;fillColor=none;top=0;left=0;bottom=0;right=0;points=[[0,0.5],[1,0.5]];portConstraint=eastwest;" vertex="1" parent="I8pQOPDDGLEfTryZQ-16-17">
          <mxGeometry width="130" height="34" as="geometry" />
        </mxCell>
        <mxCell id="I8pQOPDDGLEfTryZQ-16-19" value="" style="shape=partialRectangle;html=1;whiteSpace=wrap;connectable=0;overflow=hidden;fillColor=none;top=0;left=0;bottom=0;right=0;" vertex="1" parent="I8pQOPDDGLEfTryZQ-16-18">
          <mxGeometry width="130" height="34" as="geometry" />
        </mxCell>
        <mxCell id="I8pQOPDDGLEfTryZQ-16-20" value="" style="shape=partialRectangle;html=1;whiteSpace=wrap;collapsible=0;dropTarget=0;pointerEvents=0;fillColor=none;top=0;left=0;bottom=0;right=0;points=[[0,0.5],[1,0.5]];portConstraint=eastwest;" vertex="1" parent="I8pQOPDDGLEfTryZQ-16-17">
          <mxGeometry y="34" width="130" height="35" as="geometry" />
        </mxCell>
        <mxCell id="I8pQOPDDGLEfTryZQ-16-21" value="" style="shape=partialRectangle;html=1;whiteSpace=wrap;connectable=0;overflow=hidden;fillColor=none;top=0;left=0;bottom=0;right=0;" vertex="1" parent="I8pQOPDDGLEfTryZQ-16-20">
          <mxGeometry width="130" height="35" as="geometry" />
        </mxCell>
        <mxCell id="I8pQOPDDGLEfTryZQ-16-30" style="shape=partialRectangle;html=1;whiteSpace=wrap;collapsible=0;dropTarget=0;pointerEvents=0;fillColor=none;top=0;left=0;bottom=0;right=0;points=[[0,0.5],[1,0.5]];portConstraint=eastwest;" vertex="1" parent="I8pQOPDDGLEfTryZQ-16-17">
          <mxGeometry y="69" width="130" height="34" as="geometry" />
        </mxCell>
        <mxCell id="I8pQOPDDGLEfTryZQ-16-31" style="shape=partialRectangle;html=1;whiteSpace=wrap;connectable=0;overflow=hidden;fillColor=none;top=0;left=0;bottom=0;right=0;" vertex="1" parent="I8pQOPDDGLEfTryZQ-16-30">
          <mxGeometry width="130" height="34" as="geometry" />
        </mxCell>
        <mxCell id="I8pQOPDDGLEfTryZQ-16-22" value="" style="shape=partialRectangle;html=1;whiteSpace=wrap;collapsible=0;dropTarget=0;pointerEvents=0;fillColor=none;top=0;left=0;bottom=0;right=0;points=[[0,0.5],[1,0.5]];portConstraint=eastwest;" vertex="1" parent="I8pQOPDDGLEfTryZQ-16-17">
          <mxGeometry y="103" width="130" height="34" as="geometry" />
        </mxCell>
        <mxCell id="I8pQOPDDGLEfTryZQ-16-23" value="" style="shape=partialRectangle;html=1;whiteSpace=wrap;connectable=0;overflow=hidden;fillColor=none;top=0;left=0;bottom=0;right=0;" vertex="1" parent="I8pQOPDDGLEfTryZQ-16-22">
          <mxGeometry width="130" height="34" as="geometry" />
        </mxCell>
        <mxCell id="I8pQOPDDGLEfTryZQ-16-24" value="" style="shape=partialRectangle;html=1;whiteSpace=wrap;collapsible=0;dropTarget=0;pointerEvents=0;fillColor=none;top=0;left=0;bottom=0;right=0;points=[[0,0.5],[1,0.5]];portConstraint=eastwest;" vertex="1" parent="I8pQOPDDGLEfTryZQ-16-17">
          <mxGeometry y="137" width="130" height="34" as="geometry" />
        </mxCell>
        <mxCell id="I8pQOPDDGLEfTryZQ-16-25" value="" style="shape=partialRectangle;html=1;whiteSpace=wrap;connectable=0;overflow=hidden;fillColor=none;top=0;left=0;bottom=0;right=0;" vertex="1" parent="I8pQOPDDGLEfTryZQ-16-24">
          <mxGeometry width="130" height="34" as="geometry" />
        </mxCell>
        <mxCell id="I8pQOPDDGLEfTryZQ-16-26" value="" style="shape=partialRectangle;html=1;whiteSpace=wrap;collapsible=0;dropTarget=0;pointerEvents=0;fillColor=none;top=0;left=0;bottom=0;right=0;points=[[0,0.5],[1,0.5]];portConstraint=eastwest;" vertex="1" parent="I8pQOPDDGLEfTryZQ-16-17">
          <mxGeometry y="171" width="130" height="35" as="geometry" />
        </mxCell>
        <mxCell id="I8pQOPDDGLEfTryZQ-16-27" value="" style="shape=partialRectangle;html=1;whiteSpace=wrap;connectable=0;overflow=hidden;fillColor=none;top=0;left=0;bottom=0;right=0;" vertex="1" parent="I8pQOPDDGLEfTryZQ-16-26">
          <mxGeometry width="130" height="35" as="geometry" />
        </mxCell>
        <mxCell id="I8pQOPDDGLEfTryZQ-16-28" value="" style="shape=partialRectangle;html=1;whiteSpace=wrap;collapsible=0;dropTarget=0;pointerEvents=0;fillColor=none;top=0;left=0;bottom=0;right=0;points=[[0,0.5],[1,0.5]];portConstraint=eastwest;" vertex="1" parent="I8pQOPDDGLEfTryZQ-16-17">
          <mxGeometry y="206" width="130" height="34" as="geometry" />
        </mxCell>
        <mxCell id="I8pQOPDDGLEfTryZQ-16-29" value="" style="shape=partialRectangle;html=1;whiteSpace=wrap;connectable=0;overflow=hidden;fillColor=none;top=0;left=0;bottom=0;right=0;" vertex="1" parent="I8pQOPDDGLEfTryZQ-16-28">
          <mxGeometry width="130" height="34" as="geometry" />
        </mxCell>
        <mxCell id="I8pQOPDDGLEfTryZQ-16-87" style="edgeStyle=orthogonalEdgeStyle;rounded=0;orthogonalLoop=1;jettySize=auto;html=1;entryX=0;entryY=0.5;entryDx=0;entryDy=0;strokeWidth=2;" edge="1" parent="1" source="I8pQOPDDGLEfTryZQ-16-32" target="I8pQOPDDGLEfTryZQ-16-52">
          <mxGeometry relative="1" as="geometry">
            <Array as="points">
              <mxPoint x="1090" y="770" />
              <mxPoint x="1090" y="930" />
            </Array>
          </mxGeometry>
        </mxCell>
        <mxCell id="I8pQOPDDGLEfTryZQ-16-32" value="&lt;font style=&quot;font-size: 24px&quot;&gt;Xor&lt;/font&gt;" style="ellipse;whiteSpace=wrap;html=1;aspect=fixed;strokeWidth=2;" vertex="1" parent="1">
          <mxGeometry x="970" y="730" width="80" height="80" as="geometry" />
        </mxCell>
        <mxCell id="I8pQOPDDGLEfTryZQ-16-33" value="&lt;font style=&quot;font-size: 24px&quot;&gt;BHT&lt;/font&gt;" style="text;html=1;strokeColor=none;fillColor=none;align=center;verticalAlign=middle;whiteSpace=wrap;rounded=0;" vertex="1" parent="1">
          <mxGeometry x="500" y="910" width="40" height="20" as="geometry" />
        </mxCell>
        <mxCell id="I8pQOPDDGLEfTryZQ-16-43" value="" style="shape=singleArrow;direction=south;whiteSpace=wrap;html=1;strokeWidth=2;" vertex="1" parent="1">
          <mxGeometry x="615" y="730" width="30" height="70" as="geometry" />
        </mxCell>
        <mxCell id="I8pQOPDDGLEfTryZQ-16-85" style="edgeStyle=orthogonalEdgeStyle;rounded=0;orthogonalLoop=1;jettySize=auto;html=1;entryX=0;entryY=0;entryDx=0;entryDy=0;strokeWidth=2;" edge="1" parent="1" source="I8pQOPDDGLEfTryZQ-16-44" target="I8pQOPDDGLEfTryZQ-16-32">
          <mxGeometry relative="1" as="geometry" />
        </mxCell>
        <mxCell id="I8pQOPDDGLEfTryZQ-16-44" value="&lt;font style=&quot;font-size: 24px&quot;&gt;PC&lt;/font&gt;" style="text;html=1;strokeColor=none;fillColor=none;align=center;verticalAlign=middle;whiteSpace=wrap;rounded=0;" vertex="1" parent="1">
          <mxGeometry x="590" y="755" width="40" height="20" as="geometry" />
        </mxCell>
        <mxCell id="I8pQOPDDGLEfTryZQ-16-45" value="" style="shape=table;html=1;whiteSpace=wrap;startSize=0;container=1;collapsible=0;childLayout=tableLayout;strokeWidth=2;" vertex="1" parent="1">
          <mxGeometry x="1350" y="810" width="130" height="240" as="geometry" />
        </mxCell>
        <mxCell id="I8pQOPDDGLEfTryZQ-16-46" value="" style="shape=partialRectangle;html=1;whiteSpace=wrap;collapsible=0;dropTarget=0;pointerEvents=0;fillColor=none;top=0;left=0;bottom=0;right=0;points=[[0,0.5],[1,0.5]];portConstraint=eastwest;" vertex="1" parent="I8pQOPDDGLEfTryZQ-16-45">
          <mxGeometry width="130" height="34" as="geometry" />
        </mxCell>
        <mxCell id="I8pQOPDDGLEfTryZQ-16-47" value="" style="shape=partialRectangle;html=1;whiteSpace=wrap;connectable=0;overflow=hidden;fillColor=none;top=0;left=0;bottom=0;right=0;" vertex="1" parent="I8pQOPDDGLEfTryZQ-16-46">
          <mxGeometry width="130" height="34" as="geometry" />
        </mxCell>
        <mxCell id="I8pQOPDDGLEfTryZQ-16-48" value="" style="shape=partialRectangle;html=1;whiteSpace=wrap;collapsible=0;dropTarget=0;pointerEvents=0;fillColor=none;top=0;left=0;bottom=0;right=0;points=[[0,0.5],[1,0.5]];portConstraint=eastwest;" vertex="1" parent="I8pQOPDDGLEfTryZQ-16-45">
          <mxGeometry y="34" width="130" height="35" as="geometry" />
        </mxCell>
        <mxCell id="I8pQOPDDGLEfTryZQ-16-49" value="" style="shape=partialRectangle;html=1;whiteSpace=wrap;connectable=0;overflow=hidden;fillColor=none;top=0;left=0;bottom=0;right=0;" vertex="1" parent="I8pQOPDDGLEfTryZQ-16-48">
          <mxGeometry width="130" height="35" as="geometry" />
        </mxCell>
        <mxCell id="I8pQOPDDGLEfTryZQ-16-50" style="shape=partialRectangle;html=1;whiteSpace=wrap;collapsible=0;dropTarget=0;pointerEvents=0;fillColor=none;top=0;left=0;bottom=0;right=0;points=[[0,0.5],[1,0.5]];portConstraint=eastwest;" vertex="1" parent="I8pQOPDDGLEfTryZQ-16-45">
          <mxGeometry y="69" width="130" height="34" as="geometry" />
        </mxCell>
        <mxCell id="I8pQOPDDGLEfTryZQ-16-51" style="shape=partialRectangle;html=1;whiteSpace=wrap;connectable=0;overflow=hidden;fillColor=none;top=0;left=0;bottom=0;right=0;" vertex="1" parent="I8pQOPDDGLEfTryZQ-16-50">
          <mxGeometry width="130" height="34" as="geometry" />
        </mxCell>
        <mxCell id="I8pQOPDDGLEfTryZQ-16-52" value="" style="shape=partialRectangle;html=1;whiteSpace=wrap;collapsible=0;dropTarget=0;pointerEvents=0;fillColor=none;top=0;left=0;bottom=0;right=0;points=[[0,0.5],[1,0.5]];portConstraint=eastwest;" vertex="1" parent="I8pQOPDDGLEfTryZQ-16-45">
          <mxGeometry y="103" width="130" height="34" as="geometry" />
        </mxCell>
        <mxCell id="I8pQOPDDGLEfTryZQ-16-53" value="" style="shape=partialRectangle;html=1;whiteSpace=wrap;connectable=0;overflow=hidden;fillColor=none;top=0;left=0;bottom=0;right=0;" vertex="1" parent="I8pQOPDDGLEfTryZQ-16-52">
          <mxGeometry width="130" height="34" as="geometry" />
        </mxCell>
        <mxCell id="I8pQOPDDGLEfTryZQ-16-54" value="" style="shape=partialRectangle;html=1;whiteSpace=wrap;collapsible=0;dropTarget=0;pointerEvents=0;fillColor=none;top=0;left=0;bottom=0;right=0;points=[[0,0.5],[1,0.5]];portConstraint=eastwest;" vertex="1" parent="I8pQOPDDGLEfTryZQ-16-45">
          <mxGeometry y="137" width="130" height="34" as="geometry" />
        </mxCell>
        <mxCell id="I8pQOPDDGLEfTryZQ-16-55" value="" style="shape=partialRectangle;html=1;whiteSpace=wrap;connectable=0;overflow=hidden;fillColor=none;top=0;left=0;bottom=0;right=0;" vertex="1" parent="I8pQOPDDGLEfTryZQ-16-54">
          <mxGeometry width="130" height="34" as="geometry" />
        </mxCell>
        <mxCell id="I8pQOPDDGLEfTryZQ-16-56" value="" style="shape=partialRectangle;html=1;whiteSpace=wrap;collapsible=0;dropTarget=0;pointerEvents=0;fillColor=none;top=0;left=0;bottom=0;right=0;points=[[0,0.5],[1,0.5]];portConstraint=eastwest;" vertex="1" parent="I8pQOPDDGLEfTryZQ-16-45">
          <mxGeometry y="171" width="130" height="35" as="geometry" />
        </mxCell>
        <mxCell id="I8pQOPDDGLEfTryZQ-16-57" value="" style="shape=partialRectangle;html=1;whiteSpace=wrap;connectable=0;overflow=hidden;fillColor=none;top=0;left=0;bottom=0;right=0;" vertex="1" parent="I8pQOPDDGLEfTryZQ-16-56">
          <mxGeometry width="130" height="35" as="geometry" />
        </mxCell>
        <mxCell id="I8pQOPDDGLEfTryZQ-16-58" value="" style="shape=partialRectangle;html=1;whiteSpace=wrap;collapsible=0;dropTarget=0;pointerEvents=0;fillColor=none;top=0;left=0;bottom=0;right=0;points=[[0,0.5],[1,0.5]];portConstraint=eastwest;" vertex="1" parent="I8pQOPDDGLEfTryZQ-16-45">
          <mxGeometry y="206" width="130" height="34" as="geometry" />
        </mxCell>
        <mxCell id="I8pQOPDDGLEfTryZQ-16-59" value="" style="shape=partialRectangle;html=1;whiteSpace=wrap;connectable=0;overflow=hidden;fillColor=none;top=0;left=0;bottom=0;right=0;" vertex="1" parent="I8pQOPDDGLEfTryZQ-16-58">
          <mxGeometry width="130" height="34" as="geometry" />
        </mxCell>
        <mxCell id="I8pQOPDDGLEfTryZQ-16-60" value="&lt;font style=&quot;font-size: 24px&quot;&gt;PHT&lt;/font&gt;" style="text;html=1;strokeColor=none;fillColor=none;align=center;verticalAlign=middle;whiteSpace=wrap;rounded=0;" vertex="1" parent="1">
          <mxGeometry x="1500" y="910" width="40" height="20" as="geometry" />
        </mxCell>
        <mxCell id="I8pQOPDDGLEfTryZQ-16-61" value="" style="shape=singleArrow;direction=south;whiteSpace=wrap;html=1;rotation=-180;strokeWidth=2;" vertex="1" parent="1">
          <mxGeometry x="1400" y="735" width="30" height="70" as="geometry" />
        </mxCell>
        <mxCell id="I8pQOPDDGLEfTryZQ-16-63" value="" style="rounded=1;whiteSpace=wrap;html=1;strokeWidth=2;" vertex="1" parent="1">
          <mxGeometry x="1090" y="370" width="680" height="340" as="geometry" />
        </mxCell>
        <mxCell id="I8pQOPDDGLEfTryZQ-16-64" value="&lt;font style=&quot;font-size: 24px&quot;&gt;Two-bit saturation branch prediction&lt;/font&gt;" style="text;html=1;strokeColor=none;fillColor=none;align=center;verticalAlign=middle;whiteSpace=wrap;rounded=0;" vertex="1" parent="1">
          <mxGeometry x="1250" y="330" width="390" height="40" as="geometry" />
        </mxCell>
        <mxCell id="I8pQOPDDGLEfTryZQ-16-71" style="edgeStyle=orthogonalEdgeStyle;rounded=0;orthogonalLoop=1;jettySize=auto;html=1;exitX=1;exitY=0.5;exitDx=0;exitDy=0;strokeWidth=2;" edge="1" parent="1" source="I8pQOPDDGLEfTryZQ-16-65" target="I8pQOPDDGLEfTryZQ-16-67">
          <mxGeometry relative="1" as="geometry" />
        </mxCell>
        <mxCell id="I8pQOPDDGLEfTryZQ-16-80" value="&lt;font style=&quot;font-size: 18px&quot;&gt;fail&lt;/font&gt;" style="edgeLabel;html=1;align=center;verticalAlign=middle;resizable=0;points=[];" vertex="1" connectable="0" parent="I8pQOPDDGLEfTryZQ-16-71">
          <mxGeometry x="-0.0645" y="2" relative="1" as="geometry">
            <mxPoint x="-5" y="2" as="offset" />
          </mxGeometry>
        </mxCell>
        <mxCell id="I8pQOPDDGLEfTryZQ-16-65" value="&lt;font style=&quot;font-size: 24px&quot;&gt;strongly&lt;br&gt;taken&lt;/font&gt;" style="ellipse;whiteSpace=wrap;html=1;aspect=fixed;strokeWidth=2;" vertex="1" parent="1">
          <mxGeometry x="1160" y="400" width="100" height="100" as="geometry" />
        </mxCell>
        <mxCell id="I8pQOPDDGLEfTryZQ-16-70" style="edgeStyle=orthogonalEdgeStyle;rounded=0;orthogonalLoop=1;jettySize=auto;html=1;exitX=0.5;exitY=0;exitDx=0;exitDy=0;entryX=0.5;entryY=0;entryDx=0;entryDy=0;strokeWidth=2;" edge="1" parent="1" source="I8pQOPDDGLEfTryZQ-16-67" target="I8pQOPDDGLEfTryZQ-16-65">
          <mxGeometry relative="1" as="geometry" />
        </mxCell>
        <mxCell id="I8pQOPDDGLEfTryZQ-16-79" value="&lt;font style=&quot;font-size: 18px&quot;&gt;success&lt;/font&gt;" style="edgeLabel;html=1;align=center;verticalAlign=middle;resizable=0;points=[];" vertex="1" connectable="0" parent="I8pQOPDDGLEfTryZQ-16-70">
          <mxGeometry x="0.0622" y="1" relative="1" as="geometry">
            <mxPoint x="-1" y="9" as="offset" />
          </mxGeometry>
        </mxCell>
        <mxCell id="I8pQOPDDGLEfTryZQ-16-76" style="edgeStyle=orthogonalEdgeStyle;rounded=0;orthogonalLoop=1;jettySize=auto;html=1;exitX=0.5;exitY=1;exitDx=0;exitDy=0;entryX=0;entryY=0.5;entryDx=0;entryDy=0;strokeWidth=2;" edge="1" parent="1" source="I8pQOPDDGLEfTryZQ-16-67" target="I8pQOPDDGLEfTryZQ-16-68">
          <mxGeometry relative="1" as="geometry" />
        </mxCell>
        <mxCell id="I8pQOPDDGLEfTryZQ-16-81" value="&lt;font style=&quot;font-size: 18px&quot;&gt;fail&lt;/font&gt;" style="edgeLabel;html=1;align=center;verticalAlign=middle;resizable=0;points=[];" vertex="1" connectable="0" parent="I8pQOPDDGLEfTryZQ-16-76">
          <mxGeometry x="0.1311" y="-4" relative="1" as="geometry">
            <mxPoint x="95" as="offset" />
          </mxGeometry>
        </mxCell>
        <mxCell id="I8pQOPDDGLEfTryZQ-16-67" value="&lt;span style=&quot;font-size: 24px&quot;&gt;taken&lt;/span&gt;" style="ellipse;whiteSpace=wrap;html=1;aspect=fixed;strokeWidth=2;" vertex="1" parent="1">
          <mxGeometry x="1570" y="400" width="100" height="100" as="geometry" />
        </mxCell>
        <mxCell id="I8pQOPDDGLEfTryZQ-16-74" style="edgeStyle=orthogonalEdgeStyle;rounded=0;orthogonalLoop=1;jettySize=auto;html=1;exitX=1;exitY=0.5;exitDx=0;exitDy=0;strokeWidth=2;" edge="1" parent="1" source="I8pQOPDDGLEfTryZQ-16-68" target="I8pQOPDDGLEfTryZQ-16-69">
          <mxGeometry relative="1" as="geometry" />
        </mxCell>
        <mxCell id="I8pQOPDDGLEfTryZQ-16-83" value="&lt;font style=&quot;font-size: 18px&quot;&gt;tail&lt;/font&gt;" style="edgeLabel;html=1;align=center;verticalAlign=middle;resizable=0;points=[];" vertex="1" connectable="0" parent="I8pQOPDDGLEfTryZQ-16-74">
          <mxGeometry x="-0.0839" y="-1" relative="1" as="geometry">
            <mxPoint as="offset" />
          </mxGeometry>
        </mxCell>
        <mxCell id="I8pQOPDDGLEfTryZQ-16-78" style="edgeStyle=orthogonalEdgeStyle;rounded=0;orthogonalLoop=1;jettySize=auto;html=1;exitX=1;exitY=0;exitDx=0;exitDy=0;entryX=1;entryY=0.42;entryDx=0;entryDy=0;entryPerimeter=0;strokeWidth=2;" edge="1" parent="1" source="I8pQOPDDGLEfTryZQ-16-68" target="I8pQOPDDGLEfTryZQ-16-67">
          <mxGeometry relative="1" as="geometry">
            <Array as="points">
              <mxPoint x="1245" y="550" />
              <mxPoint x="1690" y="550" />
              <mxPoint x="1690" y="442" />
            </Array>
          </mxGeometry>
        </mxCell>
        <mxCell id="I8pQOPDDGLEfTryZQ-16-82" value="&lt;font style=&quot;font-size: 18px&quot;&gt;success&lt;/font&gt;" style="edgeLabel;html=1;align=center;verticalAlign=middle;resizable=0;points=[];" vertex="1" connectable="0" parent="I8pQOPDDGLEfTryZQ-16-78">
          <mxGeometry x="-0.4299" y="-2" relative="1" as="geometry">
            <mxPoint x="9" as="offset" />
          </mxGeometry>
        </mxCell>
        <mxCell id="I8pQOPDDGLEfTryZQ-16-68" value="&lt;span style=&quot;font-size: 24px&quot;&gt;not taken&lt;/span&gt;" style="ellipse;whiteSpace=wrap;html=1;aspect=fixed;strokeWidth=2;" vertex="1" parent="1">
          <mxGeometry x="1160" y="560" width="100" height="100" as="geometry" />
        </mxCell>
        <mxCell id="I8pQOPDDGLEfTryZQ-16-75" style="edgeStyle=orthogonalEdgeStyle;rounded=0;orthogonalLoop=1;jettySize=auto;html=1;exitX=0.5;exitY=1;exitDx=0;exitDy=0;entryX=0.5;entryY=1;entryDx=0;entryDy=0;strokeWidth=2;" edge="1" parent="1" source="I8pQOPDDGLEfTryZQ-16-69" target="I8pQOPDDGLEfTryZQ-16-68">
          <mxGeometry relative="1" as="geometry" />
        </mxCell>
        <mxCell id="I8pQOPDDGLEfTryZQ-16-84" value="&lt;font style=&quot;font-size: 18px&quot;&gt;success&lt;/font&gt;" style="edgeLabel;html=1;align=center;verticalAlign=middle;resizable=0;points=[];" vertex="1" connectable="0" parent="I8pQOPDDGLEfTryZQ-16-75">
          <mxGeometry x="0.0667" y="-2" relative="1" as="geometry">
            <mxPoint as="offset" />
          </mxGeometry>
        </mxCell>
        <mxCell id="I8pQOPDDGLEfTryZQ-16-69" value="&lt;font style=&quot;font-size: 24px&quot;&gt;strongly&lt;br&gt;not&lt;br&gt;taken&lt;/font&gt;" style="ellipse;whiteSpace=wrap;html=1;aspect=fixed;strokeWidth=2;" vertex="1" parent="1">
          <mxGeometry x="1570" y="560" width="100" height="100" as="geometry" />
        </mxCell>
        <mxCell id="I8pQOPDDGLEfTryZQ-16-88" style="edgeStyle=orthogonalEdgeStyle;rounded=0;orthogonalLoop=1;jettySize=auto;html=1;exitX=0.5;exitY=1;exitDx=0;exitDy=0;entryX=0;entryY=0.5;entryDx=0;entryDy=0;strokeWidth=2;" edge="1" parent="1" source="I8pQOPDDGLEfTryZQ-16-90" target="I8pQOPDDGLEfTryZQ-16-96">
          <mxGeometry relative="1" as="geometry" />
        </mxCell>
        <mxCell id="I8pQOPDDGLEfTryZQ-16-89" value="&lt;font style=&quot;font-size: 18px&quot;&gt;instruction&lt;/font&gt;" style="edgeLabel;html=1;align=center;verticalAlign=middle;resizable=0;points=[];" vertex="1" connectable="0" parent="I8pQOPDDGLEfTryZQ-16-88">
          <mxGeometry x="-0.1852" relative="1" as="geometry">
            <mxPoint y="-15" as="offset" />
          </mxGeometry>
        </mxCell>
        <mxCell id="I8pQOPDDGLEfTryZQ-16-90" value="&lt;font style=&quot;font-size: 24px&quot;&gt;IF&lt;/font&gt;" style="rounded=0;whiteSpace=wrap;html=1;strokeWidth=2;" vertex="1" parent="1">
          <mxGeometry x="365" y="1447" width="90" height="210" as="geometry" />
        </mxCell>
        <mxCell id="I8pQOPDDGLEfTryZQ-16-91" style="edgeStyle=orthogonalEdgeStyle;rounded=0;orthogonalLoop=1;jettySize=auto;html=1;exitX=0.5;exitY=1;exitDx=0;exitDy=0;entryX=1;entryY=0.5;entryDx=0;entryDy=0;strokeWidth=2;" edge="1" parent="1" source="I8pQOPDDGLEfTryZQ-16-93" target="I8pQOPDDGLEfTryZQ-16-96">
          <mxGeometry relative="1" as="geometry" />
        </mxCell>
        <mxCell id="I8pQOPDDGLEfTryZQ-16-92" value="&lt;font style=&quot;font-size: 18px&quot;&gt;taken or not taken(actual)&lt;/font&gt;" style="edgeLabel;html=1;align=center;verticalAlign=middle;resizable=0;points=[];" vertex="1" connectable="0" parent="I8pQOPDDGLEfTryZQ-16-91">
          <mxGeometry x="-0.4439" y="-4" relative="1" as="geometry">
            <mxPoint x="9" y="-7" as="offset" />
          </mxGeometry>
        </mxCell>
        <mxCell id="I8pQOPDDGLEfTryZQ-16-93" value="&lt;font style=&quot;font-size: 24px&quot;&gt;EXE&lt;/font&gt;" style="rounded=0;whiteSpace=wrap;html=1;strokeWidth=2;" vertex="1" parent="1">
          <mxGeometry x="765" y="1437" width="90" height="210" as="geometry" />
        </mxCell>
        <mxCell id="I8pQOPDDGLEfTryZQ-16-94" style="edgeStyle=orthogonalEdgeStyle;rounded=0;orthogonalLoop=1;jettySize=auto;html=1;exitX=0.5;exitY=0;exitDx=0;exitDy=0;entryX=1;entryY=0.5;entryDx=0;entryDy=0;strokeWidth=2;" edge="1" parent="1" source="I8pQOPDDGLEfTryZQ-16-96" target="I8pQOPDDGLEfTryZQ-16-90">
          <mxGeometry relative="1" as="geometry" />
        </mxCell>
        <mxCell id="I8pQOPDDGLEfTryZQ-16-95" value="&lt;font style=&quot;font-size: 18px&quot;&gt;taken or not taken(prediction)&lt;/font&gt;" style="edgeLabel;html=1;align=center;verticalAlign=middle;resizable=0;points=[];" vertex="1" connectable="0" parent="I8pQOPDDGLEfTryZQ-16-94">
          <mxGeometry x="-0.2327" y="-2" relative="1" as="geometry">
            <mxPoint x="-22" y="13" as="offset" />
          </mxGeometry>
        </mxCell>
        <mxCell id="I8pQOPDDGLEfTryZQ-16-96" value="&lt;font style=&quot;font-size: 24px&quot;&gt;BPU&lt;/font&gt;" style="rounded=0;whiteSpace=wrap;html=1;strokeWidth=2;" vertex="1" parent="1">
          <mxGeometry x="515" y="1697" width="180" height="80" as="geometry" />
        </mxCell>
        <mxCell id="I8pQOPDDGLEfTryZQ-16-113" style="edgeStyle=orthogonalEdgeStyle;rounded=0;orthogonalLoop=1;jettySize=auto;html=1;entryX=0;entryY=0.5;entryDx=0;entryDy=0;strokeWidth=2;" edge="1" parent="1" source="I8pQOPDDGLEfTryZQ-16-114" target="I8pQOPDDGLEfTryZQ-16-126">
          <mxGeometry relative="1" as="geometry">
            <Array as="points">
              <mxPoint x="1065" y="1827" />
              <mxPoint x="1065" y="1987" />
            </Array>
          </mxGeometry>
        </mxCell>
        <mxCell id="I8pQOPDDGLEfTryZQ-16-114" value="&lt;font style=&quot;font-size: 24px&quot;&gt;Xor&lt;/font&gt;" style="ellipse;whiteSpace=wrap;html=1;aspect=fixed;strokeWidth=2;" vertex="1" parent="1">
          <mxGeometry x="945" y="1787" width="80" height="80" as="geometry" />
        </mxCell>
        <mxCell id="I8pQOPDDGLEfTryZQ-16-116" value="" style="shape=singleArrow;direction=south;whiteSpace=wrap;html=1;strokeWidth=2;" vertex="1" parent="1">
          <mxGeometry x="590" y="1787" width="30" height="165" as="geometry" />
        </mxCell>
        <mxCell id="I8pQOPDDGLEfTryZQ-16-117" style="edgeStyle=orthogonalEdgeStyle;rounded=0;orthogonalLoop=1;jettySize=auto;html=1;entryX=0;entryY=0;entryDx=0;entryDy=0;strokeWidth=2;" edge="1" parent="1" source="I8pQOPDDGLEfTryZQ-16-118" target="I8pQOPDDGLEfTryZQ-16-114">
          <mxGeometry relative="1" as="geometry" />
        </mxCell>
        <mxCell id="I8pQOPDDGLEfTryZQ-16-118" value="&lt;font style=&quot;font-size: 24px&quot;&gt;PC&lt;/font&gt;" style="text;html=1;strokeColor=none;fillColor=none;align=center;verticalAlign=middle;whiteSpace=wrap;rounded=0;" vertex="1" parent="1">
          <mxGeometry x="560" y="1853" width="40" height="20" as="geometry" />
        </mxCell>
        <mxCell id="I8pQOPDDGLEfTryZQ-16-119" value="" style="shape=table;html=1;whiteSpace=wrap;startSize=0;container=1;collapsible=0;childLayout=tableLayout;strokeWidth=2;" vertex="1" parent="1">
          <mxGeometry x="1325" y="1867" width="130" height="240" as="geometry" />
        </mxCell>
        <mxCell id="I8pQOPDDGLEfTryZQ-16-120" value="" style="shape=partialRectangle;html=1;whiteSpace=wrap;collapsible=0;dropTarget=0;pointerEvents=0;fillColor=none;top=0;left=0;bottom=0;right=0;points=[[0,0.5],[1,0.5]];portConstraint=eastwest;" vertex="1" parent="I8pQOPDDGLEfTryZQ-16-119">
          <mxGeometry width="130" height="34" as="geometry" />
        </mxCell>
        <mxCell id="I8pQOPDDGLEfTryZQ-16-121" value="" style="shape=partialRectangle;html=1;whiteSpace=wrap;connectable=0;overflow=hidden;fillColor=none;top=0;left=0;bottom=0;right=0;" vertex="1" parent="I8pQOPDDGLEfTryZQ-16-120">
          <mxGeometry width="130" height="34" as="geometry" />
        </mxCell>
        <mxCell id="I8pQOPDDGLEfTryZQ-16-122" value="" style="shape=partialRectangle;html=1;whiteSpace=wrap;collapsible=0;dropTarget=0;pointerEvents=0;fillColor=none;top=0;left=0;bottom=0;right=0;points=[[0,0.5],[1,0.5]];portConstraint=eastwest;" vertex="1" parent="I8pQOPDDGLEfTryZQ-16-119">
          <mxGeometry y="34" width="130" height="35" as="geometry" />
        </mxCell>
        <mxCell id="I8pQOPDDGLEfTryZQ-16-123" value="" style="shape=partialRectangle;html=1;whiteSpace=wrap;connectable=0;overflow=hidden;fillColor=none;top=0;left=0;bottom=0;right=0;" vertex="1" parent="I8pQOPDDGLEfTryZQ-16-122">
          <mxGeometry width="130" height="35" as="geometry" />
        </mxCell>
        <mxCell id="I8pQOPDDGLEfTryZQ-16-124" style="shape=partialRectangle;html=1;whiteSpace=wrap;collapsible=0;dropTarget=0;pointerEvents=0;fillColor=none;top=0;left=0;bottom=0;right=0;points=[[0,0.5],[1,0.5]];portConstraint=eastwest;" vertex="1" parent="I8pQOPDDGLEfTryZQ-16-119">
          <mxGeometry y="69" width="130" height="34" as="geometry" />
        </mxCell>
        <mxCell id="I8pQOPDDGLEfTryZQ-16-125" style="shape=partialRectangle;html=1;whiteSpace=wrap;connectable=0;overflow=hidden;fillColor=none;top=0;left=0;bottom=0;right=0;" vertex="1" parent="I8pQOPDDGLEfTryZQ-16-124">
          <mxGeometry width="130" height="34" as="geometry" />
        </mxCell>
        <mxCell id="I8pQOPDDGLEfTryZQ-16-126" value="" style="shape=partialRectangle;html=1;whiteSpace=wrap;collapsible=0;dropTarget=0;pointerEvents=0;fillColor=none;top=0;left=0;bottom=0;right=0;points=[[0,0.5],[1,0.5]];portConstraint=eastwest;" vertex="1" parent="I8pQOPDDGLEfTryZQ-16-119">
          <mxGeometry y="103" width="130" height="34" as="geometry" />
        </mxCell>
        <mxCell id="I8pQOPDDGLEfTryZQ-16-127" value="" style="shape=partialRectangle;html=1;whiteSpace=wrap;connectable=0;overflow=hidden;fillColor=none;top=0;left=0;bottom=0;right=0;" vertex="1" parent="I8pQOPDDGLEfTryZQ-16-126">
          <mxGeometry width="130" height="34" as="geometry" />
        </mxCell>
        <mxCell id="I8pQOPDDGLEfTryZQ-16-128" value="" style="shape=partialRectangle;html=1;whiteSpace=wrap;collapsible=0;dropTarget=0;pointerEvents=0;fillColor=none;top=0;left=0;bottom=0;right=0;points=[[0,0.5],[1,0.5]];portConstraint=eastwest;" vertex="1" parent="I8pQOPDDGLEfTryZQ-16-119">
          <mxGeometry y="137" width="130" height="34" as="geometry" />
        </mxCell>
        <mxCell id="I8pQOPDDGLEfTryZQ-16-129" value="" style="shape=partialRectangle;html=1;whiteSpace=wrap;connectable=0;overflow=hidden;fillColor=none;top=0;left=0;bottom=0;right=0;" vertex="1" parent="I8pQOPDDGLEfTryZQ-16-128">
          <mxGeometry width="130" height="34" as="geometry" />
        </mxCell>
        <mxCell id="I8pQOPDDGLEfTryZQ-16-130" value="" style="shape=partialRectangle;html=1;whiteSpace=wrap;collapsible=0;dropTarget=0;pointerEvents=0;fillColor=none;top=0;left=0;bottom=0;right=0;points=[[0,0.5],[1,0.5]];portConstraint=eastwest;" vertex="1" parent="I8pQOPDDGLEfTryZQ-16-119">
          <mxGeometry y="171" width="130" height="35" as="geometry" />
        </mxCell>
        <mxCell id="I8pQOPDDGLEfTryZQ-16-131" value="" style="shape=partialRectangle;html=1;whiteSpace=wrap;connectable=0;overflow=hidden;fillColor=none;top=0;left=0;bottom=0;right=0;" vertex="1" parent="I8pQOPDDGLEfTryZQ-16-130">
          <mxGeometry width="130" height="35" as="geometry" />
        </mxCell>
        <mxCell id="I8pQOPDDGLEfTryZQ-16-132" value="" style="shape=partialRectangle;html=1;whiteSpace=wrap;collapsible=0;dropTarget=0;pointerEvents=0;fillColor=none;top=0;left=0;bottom=0;right=0;points=[[0,0.5],[1,0.5]];portConstraint=eastwest;" vertex="1" parent="I8pQOPDDGLEfTryZQ-16-119">
          <mxGeometry y="206" width="130" height="34" as="geometry" />
        </mxCell>
        <mxCell id="I8pQOPDDGLEfTryZQ-16-133" value="" style="shape=partialRectangle;html=1;whiteSpace=wrap;connectable=0;overflow=hidden;fillColor=none;top=0;left=0;bottom=0;right=0;" vertex="1" parent="I8pQOPDDGLEfTryZQ-16-132">
          <mxGeometry width="130" height="34" as="geometry" />
        </mxCell>
        <mxCell id="I8pQOPDDGLEfTryZQ-16-134" value="&lt;font style=&quot;font-size: 24px&quot;&gt;PHT&lt;/font&gt;" style="text;html=1;strokeColor=none;fillColor=none;align=center;verticalAlign=middle;whiteSpace=wrap;rounded=0;" vertex="1" parent="1">
          <mxGeometry x="1475" y="1967" width="40" height="20" as="geometry" />
        </mxCell>
        <mxCell id="I8pQOPDDGLEfTryZQ-16-135" value="" style="shape=singleArrow;direction=south;whiteSpace=wrap;html=1;rotation=-180;strokeWidth=2;" vertex="1" parent="1">
          <mxGeometry x="1375" y="1792" width="30" height="70" as="geometry" />
        </mxCell>
        <mxCell id="I8pQOPDDGLEfTryZQ-16-136" value="" style="rounded=1;whiteSpace=wrap;html=1;strokeWidth=2;" vertex="1" parent="1">
          <mxGeometry x="1065" y="1427" width="680" height="340" as="geometry" />
        </mxCell>
        <mxCell id="I8pQOPDDGLEfTryZQ-16-137" value="&lt;font style=&quot;font-size: 24px&quot;&gt;Two-bit saturation branch prediction&lt;/font&gt;" style="text;html=1;strokeColor=none;fillColor=none;align=center;verticalAlign=middle;whiteSpace=wrap;rounded=0;" vertex="1" parent="1">
          <mxGeometry x="1225" y="1387" width="390" height="40" as="geometry" />
        </mxCell>
        <mxCell id="I8pQOPDDGLEfTryZQ-16-138" style="edgeStyle=orthogonalEdgeStyle;rounded=0;orthogonalLoop=1;jettySize=auto;html=1;exitX=1;exitY=0.5;exitDx=0;exitDy=0;strokeWidth=2;" edge="1" parent="1" source="I8pQOPDDGLEfTryZQ-16-140" target="I8pQOPDDGLEfTryZQ-16-145">
          <mxGeometry relative="1" as="geometry" />
        </mxCell>
        <mxCell id="I8pQOPDDGLEfTryZQ-16-139" value="&lt;font style=&quot;font-size: 18px&quot;&gt;fail&lt;/font&gt;" style="edgeLabel;html=1;align=center;verticalAlign=middle;resizable=0;points=[];" vertex="1" connectable="0" parent="I8pQOPDDGLEfTryZQ-16-138">
          <mxGeometry x="-0.0645" y="2" relative="1" as="geometry">
            <mxPoint x="-5" y="2" as="offset" />
          </mxGeometry>
        </mxCell>
        <mxCell id="I8pQOPDDGLEfTryZQ-16-140" value="&lt;font style=&quot;font-size: 24px&quot;&gt;strongly&lt;br&gt;taken&lt;/font&gt;" style="ellipse;whiteSpace=wrap;html=1;aspect=fixed;strokeWidth=2;" vertex="1" parent="1">
          <mxGeometry x="1135" y="1457" width="100" height="100" as="geometry" />
        </mxCell>
        <mxCell id="I8pQOPDDGLEfTryZQ-16-141" style="edgeStyle=orthogonalEdgeStyle;rounded=0;orthogonalLoop=1;jettySize=auto;html=1;exitX=0.5;exitY=0;exitDx=0;exitDy=0;entryX=0.5;entryY=0;entryDx=0;entryDy=0;strokeWidth=2;" edge="1" parent="1" source="I8pQOPDDGLEfTryZQ-16-145" target="I8pQOPDDGLEfTryZQ-16-140">
          <mxGeometry relative="1" as="geometry" />
        </mxCell>
        <mxCell id="I8pQOPDDGLEfTryZQ-16-142" value="&lt;font style=&quot;font-size: 18px&quot;&gt;success&lt;/font&gt;" style="edgeLabel;html=1;align=center;verticalAlign=middle;resizable=0;points=[];" vertex="1" connectable="0" parent="I8pQOPDDGLEfTryZQ-16-141">
          <mxGeometry x="0.0622" y="1" relative="1" as="geometry">
            <mxPoint x="-1" y="9" as="offset" />
          </mxGeometry>
        </mxCell>
        <mxCell id="I8pQOPDDGLEfTryZQ-16-143" style="edgeStyle=orthogonalEdgeStyle;rounded=0;orthogonalLoop=1;jettySize=auto;html=1;exitX=0.5;exitY=1;exitDx=0;exitDy=0;entryX=0;entryY=0.5;entryDx=0;entryDy=0;strokeWidth=2;" edge="1" parent="1" source="I8pQOPDDGLEfTryZQ-16-145" target="I8pQOPDDGLEfTryZQ-16-150">
          <mxGeometry relative="1" as="geometry" />
        </mxCell>
        <mxCell id="I8pQOPDDGLEfTryZQ-16-144" value="&lt;font style=&quot;font-size: 18px&quot;&gt;fail&lt;/font&gt;" style="edgeLabel;html=1;align=center;verticalAlign=middle;resizable=0;points=[];" vertex="1" connectable="0" parent="I8pQOPDDGLEfTryZQ-16-143">
          <mxGeometry x="0.1311" y="-4" relative="1" as="geometry">
            <mxPoint x="95" as="offset" />
          </mxGeometry>
        </mxCell>
        <mxCell id="I8pQOPDDGLEfTryZQ-16-145" value="&lt;span style=&quot;font-size: 24px&quot;&gt;taken&lt;/span&gt;" style="ellipse;whiteSpace=wrap;html=1;aspect=fixed;strokeWidth=2;" vertex="1" parent="1">
          <mxGeometry x="1545" y="1457" width="100" height="100" as="geometry" />
        </mxCell>
        <mxCell id="I8pQOPDDGLEfTryZQ-16-146" style="edgeStyle=orthogonalEdgeStyle;rounded=0;orthogonalLoop=1;jettySize=auto;html=1;exitX=1;exitY=0.5;exitDx=0;exitDy=0;strokeWidth=2;" edge="1" parent="1" source="I8pQOPDDGLEfTryZQ-16-150" target="I8pQOPDDGLEfTryZQ-16-153">
          <mxGeometry relative="1" as="geometry" />
        </mxCell>
        <mxCell id="I8pQOPDDGLEfTryZQ-16-147" value="&lt;font style=&quot;font-size: 18px&quot;&gt;tail&lt;/font&gt;" style="edgeLabel;html=1;align=center;verticalAlign=middle;resizable=0;points=[];" vertex="1" connectable="0" parent="I8pQOPDDGLEfTryZQ-16-146">
          <mxGeometry x="-0.0839" y="-1" relative="1" as="geometry">
            <mxPoint as="offset" />
          </mxGeometry>
        </mxCell>
        <mxCell id="I8pQOPDDGLEfTryZQ-16-148" style="edgeStyle=orthogonalEdgeStyle;rounded=0;orthogonalLoop=1;jettySize=auto;html=1;exitX=1;exitY=0;exitDx=0;exitDy=0;entryX=1;entryY=0.42;entryDx=0;entryDy=0;entryPerimeter=0;strokeWidth=2;" edge="1" parent="1" source="I8pQOPDDGLEfTryZQ-16-150" target="I8pQOPDDGLEfTryZQ-16-145">
          <mxGeometry relative="1" as="geometry">
            <Array as="points">
              <mxPoint x="1220" y="1607" />
              <mxPoint x="1665" y="1607" />
              <mxPoint x="1665" y="1499" />
            </Array>
          </mxGeometry>
        </mxCell>
        <mxCell id="I8pQOPDDGLEfTryZQ-16-149" value="&lt;font style=&quot;font-size: 18px&quot;&gt;success&lt;/font&gt;" style="edgeLabel;html=1;align=center;verticalAlign=middle;resizable=0;points=[];" vertex="1" connectable="0" parent="I8pQOPDDGLEfTryZQ-16-148">
          <mxGeometry x="-0.4299" y="-2" relative="1" as="geometry">
            <mxPoint x="9" as="offset" />
          </mxGeometry>
        </mxCell>
        <mxCell id="I8pQOPDDGLEfTryZQ-16-150" value="&lt;span style=&quot;font-size: 24px&quot;&gt;not taken&lt;/span&gt;" style="ellipse;whiteSpace=wrap;html=1;aspect=fixed;strokeWidth=2;" vertex="1" parent="1">
          <mxGeometry x="1135" y="1617" width="100" height="100" as="geometry" />
        </mxCell>
        <mxCell id="I8pQOPDDGLEfTryZQ-16-151" style="edgeStyle=orthogonalEdgeStyle;rounded=0;orthogonalLoop=1;jettySize=auto;html=1;exitX=0.5;exitY=1;exitDx=0;exitDy=0;entryX=0.5;entryY=1;entryDx=0;entryDy=0;strokeWidth=2;" edge="1" parent="1" source="I8pQOPDDGLEfTryZQ-16-153" target="I8pQOPDDGLEfTryZQ-16-150">
          <mxGeometry relative="1" as="geometry" />
        </mxCell>
        <mxCell id="I8pQOPDDGLEfTryZQ-16-152" value="&lt;font style=&quot;font-size: 18px&quot;&gt;success&lt;/font&gt;" style="edgeLabel;html=1;align=center;verticalAlign=middle;resizable=0;points=[];" vertex="1" connectable="0" parent="I8pQOPDDGLEfTryZQ-16-151">
          <mxGeometry x="0.0667" y="-2" relative="1" as="geometry">
            <mxPoint as="offset" />
          </mxGeometry>
        </mxCell>
        <mxCell id="I8pQOPDDGLEfTryZQ-16-153" value="&lt;font style=&quot;font-size: 24px&quot;&gt;strongly&lt;br&gt;not&lt;br&gt;taken&lt;/font&gt;" style="ellipse;whiteSpace=wrap;html=1;aspect=fixed;strokeWidth=2;" vertex="1" parent="1">
          <mxGeometry x="1545" y="1617" width="100" height="100" as="geometry" />
        </mxCell>
        <mxCell id="I8pQOPDDGLEfTryZQ-16-154" value="" style="shape=table;html=1;whiteSpace=wrap;startSize=0;container=1;collapsible=0;childLayout=tableLayout;strokeWidth=2;" vertex="1" parent="1">
          <mxGeometry x="400.25" y="1957.5" width="419.5" height="59" as="geometry" />
        </mxCell>
        <mxCell id="I8pQOPDDGLEfTryZQ-16-155" value="" style="shape=partialRectangle;html=1;whiteSpace=wrap;collapsible=0;dropTarget=0;pointerEvents=0;fillColor=none;top=0;left=0;bottom=0;right=0;points=[[0,0.5],[1,0.5]];portConstraint=eastwest;" vertex="1" parent="I8pQOPDDGLEfTryZQ-16-154">
          <mxGeometry width="419.5" height="59" as="geometry" />
        </mxCell>
        <mxCell id="I8pQOPDDGLEfTryZQ-16-156" value="&lt;font style=&quot;font-size: 24px&quot;&gt;GHR&lt;/font&gt;" style="shape=partialRectangle;html=1;whiteSpace=wrap;connectable=0;overflow=hidden;fillColor=none;top=0;left=0;bottom=0;right=0;" vertex="1" parent="I8pQOPDDGLEfTryZQ-16-155">
          <mxGeometry width="420" height="59" as="geometry" />
        </mxCell>
        <mxCell id="I8pQOPDDGLEfTryZQ-16-157" style="edgeStyle=orthogonalEdgeStyle;rounded=0;orthogonalLoop=1;jettySize=auto;html=1;entryX=0;entryY=1;entryDx=0;entryDy=0;strokeWidth=2;" edge="1" parent="1" source="I8pQOPDDGLEfTryZQ-16-155" target="I8pQOPDDGLEfTryZQ-16-114">
          <mxGeometry relative="1" as="geometry">
            <Array as="points">
              <mxPoint x="864" y="1987" />
              <mxPoint x="864" y="1855" />
            </Array>
          </mxGeometry>
        </mxCell>
      </root>
    </mxGraphModel>
  </diagram>
</mxfile>
